<svg xmlns="http://www.w3.org/2000/svg" viewBox="0 0 512 512" width="512" height="512">
  <rect x="28" y="56" width="456" height="420" rx="34" fill="#0f172a" />

  <g id="top-thing">
    <rect x="118" y="28" width="24" height="64" rx="12" fill="#06b6d4" />
    <rect x="244" y="28" width="24" height="64" rx="12" fill="#06b6d4" />
    <rect x="370" y="28" width="24" height="64" rx="12" fill="#06b6d4" />
  </g>
  <g id="content">
    <g id="days">
      <rect x="50" y="90" width="54" height="300" rx="9" fill="#1f2937" />
      <rect x="110" y="90" width="54" height="300" rx="9" fill="#1f2937" />
      <rect x="170" y="90" width="54" height="300" rx="9" fill="#1f2937" />
      <rect x="230" y="90" width="54" height="300" rx="9" fill="#1f2937" />
      <rect x="290" y="90" width="54" height="300" rx="9" fill="#1f2937" />
      <rect x="350" y="90" width="54" height="300" rx="9" fill="#1f2937" />
      <rect x="410" y="90" width="54" height="300" rx="9" fill="#1f2937" />
    </g>

    <g id="day-0">
      <rect x="56" y="120" width="42" height="48" rx="5" fill="#2b3443" />
      <rect x="56" y="185" width="42" height="56" rx="5" fill="#313b4d" />
      <rect x="56" y="260" width="42" height="52" rx="5" fill="#2f3948" />
      <rect x="56" y="330" width="42" height="60" rx="5" fill="#343e50" />
    </g>

    <g id="day-1">
      <rect x="116" y="120" width="42" height="54" rx="5" fill="#313b4d" />
      <rect x="116" y="192" width="42" height="58" rx="5" fill="#2b3443" />
      <rect x="116" y="270" width="42" height="50" rx="5" fill="#343e50" />
      <rect x="116" y="340" width="42" height="64" rx="5" fill="#2f3948" />
    </g>

    <g id="day-2">
      <rect x="176" y="120" width="42" height="56" rx="5" fill="#2f3948" />
      <rect x="176" y="198" width="42" height="50" rx="5" fill="#343e50" />
      <rect x="176" y="268" width="42" height="60" rx="5" fill="#2b3443" />
      <rect x="176" y="350" width="42" height="52" rx="5" fill="#313b4d" />
    </g>

    <g id="day-3">
      <rect x="236" y="120" width="42" height="52" rx="5" fill="#2c3646" />
      <rect x="236" y="190" width="42" height="60" rx="5" fill="#343e50" />
      <rect x="236" y="275" width="42" height="48" rx="5" fill="#2f3948" />
      <rect x="236" y="340" width="42" height="58" rx="5" fill="#313b4d" />
    </g>

    <g id="day-4">
      <rect x="296" y="120" width="42" height="58" rx="5" fill="#343e50" />
      <rect x="296" y="205" width="42" height="50" rx="5" fill="#2b3443" />
      <rect x="296" y="275" width="42" height="56" rx="5" fill="#313b4d" />
      <rect x="296" y="350" width="42" height="60" rx="5" fill="#2f3948" />
    </g>

    <g id="day-5">
      <rect x="356" y="120" width="42" height="50" rx="5" fill="#2f3948" />
      <rect x="356" y="192" width="42" height="62" rx="5" fill="#343e50" />
      <rect x="356" y="278" width="42" height="50" rx="5" fill="#2b3443" />
      <rect x="356" y="345" width="42" height="56" rx="5" fill="#313b4d" />
    </g>

    <g id="day-6">
      <rect x="416" y="120" width="42" height="54" rx="5" fill="#313b4d" />
      <rect x="416" y="200" width="42" height="48" rx="5" fill="#2c3646" />
      <rect x="416" y="265" width="42" height="60" rx="5" fill="#343e50" />
      <rect x="416" y="343" width="42" height="52" rx="5" fill="#2b3443" />
    </g>
  </g>

  <circle cx="366" cy="360" r="102" fill="#06b6d4" />
  <circle cx="366" cy="360" r="74" fill="#2563eb" />
  <circle cx="366" cy="360" r="52" fill="#f8fafc" />
  <line
    x1="366"
    y1="360"
    x2="366"
    y2="318"
    stroke="#0f172a"
    stroke-width="8"
    stroke-linecap="round"
  />
  <line
    x1="366"
    y1="360"
    x2="398"
    y2="376"
    stroke="#0f172a"
    stroke-width="8"
    stroke-linecap="round"
  />
  <circle cx="366" cy="360" r="9" fill="#0f172a" />
</svg>
